<?xml version="1.0" encoding="utf-8"?>
<!-- generated at drububu.com  -->
<!DOCTYPE svg PUBLIC "-//W3C//DTD SVG 1.1//EN" "http://www.w3.org/Graphics/SVG/1.1/DTD/svg11.dtd">
<svg version="1.1" preserveAspectRatio="xMinYMin meet" xmlns="http://www.w3.org/2000/svg" xmlns:xlink="http://www.w3.org/1999/xlink" x="0px" y="0px" viewBox="0 0 15 15">
<path d="M7 1h1v1h-1v-1z" fill="rgb(26,28,44)"/>
<path d="M3 2h2v1h-2v-1z" fill="rgb(26,28,44)"/>
<path d="M6 2h1v1h-1v-1z" fill="rgb(26,28,44)"/>
<path d="M7 2h1v1h-1v-1z" fill="rgb(177,65,86)"/>
<path d="M8 2h1v1h-1v-1z" fill="rgb(26,28,44)"/>
<path d="M10 2h2v1h-2v-1z" fill="rgb(26,28,44)"/>
<path d="M2 3h1v2h-1v-2z" fill="rgb(26,28,44)"/>
<path d="M3 3h2v1h-1v1h-1v-2z" fill="rgb(177,65,86)"/>
<path d="M5 3h1v1h-1v-1z" fill="rgb(26,28,44)"/>
<path d="M6 3h1v1h-1v-1z" fill="rgb(177,65,86)"/>
<path d="M7 3h1v1h1v2h-1v-1h-1v1h-1v-2h1v-1z" fill="rgb(238,123,88)"/>
<path d="M8 3h1v1h-1v-1z" fill="rgb(177,65,86)"/>
<path d="M9 3h1v1h-1v-1z" fill="rgb(26,28,44)"/>
<path d="M10 3h2v2h-1v-1h-1v-1z" fill="rgb(177,65,86)"/>
<path d="M12 3h1v2h-1v-2z" fill="rgb(26,28,44)"/>
<path d="M4 4h1v1h-1v-1z" fill="rgb(238,123,88)"/>
<path d="M5 4h1v1h-1v-1z" fill="rgb(177,65,86)"/>
<path d="M9 4h1v1h-1v-1z" fill="rgb(177,65,86)"/>
<path d="M10 4h1v1h-1v-1z" fill="rgb(238,123,88)"/>
<path d="M3 5h1v1h-1v-1z" fill="rgb(26,28,44)"/>
<path d="M4 5h1v1h-1v-1z" fill="rgb(177,65,86)"/>
<path d="M5 5h1v1h-1v-1z" fill="rgb(255,208,121)"/>
<path d="M7 5h1v1h-1v-1z" fill="rgb(255,208,121)"/>
<path d="M9 5h1v1h-1v-1z" fill="rgb(255,208,121)"/>
<path d="M10 5h1v1h-1v-1z" fill="rgb(177,65,86)"/>
<path d="M11 5h1v1h-1v-1z" fill="rgb(26,28,44)"/>
<path d="M2 6h1v1h-1v-1z" fill="rgb(26,28,44)"/>
<path d="M3 6h1v1h-1v-1z" fill="rgb(177,65,86)"/>
<path d="M4 6h2v1h-1v1h1v1h-2v-1h-1v-1h1v-1z" fill="rgb(238,123,88)"/>
<path d="M6 6h1v1h-1v-1z" fill="rgb(255,208,121)"/>
<path d="M7 6h1v1h1v1h-1v1h-1v-1h-1v-1h1v-1z" fill="rgb(244,244,244)"/>
<path d="M8 6h1v1h-1v-1z" fill="rgb(255,208,121)"/>
<path d="M9 6h2v1h1v1h-1v1h-2v-1h1v-1h-1v-1z" fill="rgb(238,123,88)"/>
<path d="M11 6h1v1h-1v-1z" fill="rgb(177,65,86)"/>
<path d="M12 6h1v1h-1v-1z" fill="rgb(26,28,44)"/>
<path d="M1 7h1v1h-1v-1z" fill="rgb(26,28,44)"/>
<path d="M2 7h1v1h-1v-1z" fill="rgb(177,65,86)"/>
<path d="M5 7h1v1h-1v-1z" fill="rgb(255,208,121)"/>
<path d="M9 7h1v1h-1v-1z" fill="rgb(255,208,121)"/>
<path d="M12 7h1v1h-1v-1z" fill="rgb(177,65,86)"/>
<path d="M13 7h1v1h-1v-1z" fill="rgb(26,28,44)"/>
<path d="M2 8h1v1h-1v-1z" fill="rgb(26,28,44)"/>
<path d="M3 8h1v1h-1v-1z" fill="rgb(177,65,86)"/>
<path d="M6 8h1v1h-1v-1z" fill="rgb(255,208,121)"/>
<path d="M8 8h1v1h-1v-1z" fill="rgb(255,208,121)"/>
<path d="M11 8h1v1h-1v-1z" fill="rgb(177,65,86)"/>
<path d="M12 8h1v1h-1v-1z" fill="rgb(26,28,44)"/>
<path d="M3 9h1v1h-1v-1z" fill="rgb(26,28,44)"/>
<path d="M4 9h1v1h-1v-1z" fill="rgb(177,65,86)"/>
<path d="M5 9h1v1h-1v-1z" fill="rgb(255,208,121)"/>
<path d="M6 9h1v1h1v-1h1v2h-1v1h-1v-1h-1v-2z" fill="rgb(238,123,88)"/>
<path d="M7 9h1v1h-1v-1z" fill="rgb(255,208,121)"/>
<path d="M9 9h1v1h-1v-1z" fill="rgb(255,208,121)"/>
<path d="M10 9h1v1h-1v-1z" fill="rgb(177,65,86)"/>
<path d="M11 9h1v1h-1v-1z" fill="rgb(26,28,44)"/>
<path d="M2 10h1v2h-1v-2z" fill="rgb(26,28,44)"/>
<path d="M3 10h1v1h1v1h-2v-2z" fill="rgb(177,65,86)"/>
<path d="M4 10h1v1h-1v-1z" fill="rgb(238,123,88)"/>
<path d="M5 10h1v1h-1v-1z" fill="rgb(177,65,86)"/>
<path d="M9 10h1v1h-1v-1z" fill="rgb(177,65,86)"/>
<path d="M10 10h1v1h-1v-1z" fill="rgb(238,123,88)"/>
<path d="M11 10h1v2h-2v-1h1v-1z" fill="rgb(177,65,86)"/>
<path d="M12 10h1v2h-1v-2z" fill="rgb(26,28,44)"/>
<path d="M5 11h1v1h-1v-1z" fill="rgb(26,28,44)"/>
<path d="M6 11h1v1h-1v-1z" fill="rgb(177,65,86)"/>
<path d="M8 11h1v1h-1v-1z" fill="rgb(177,65,86)"/>
<path d="M9 11h1v1h-1v-1z" fill="rgb(26,28,44)"/>
<path d="M3 12h2v1h-2v-1z" fill="rgb(26,28,44)"/>
<path d="M6 12h1v1h-1v-1z" fill="rgb(26,28,44)"/>
<path d="M7 12h1v1h-1v-1z" fill="rgb(177,65,86)"/>
<path d="M8 12h1v1h-1v-1z" fill="rgb(26,28,44)"/>
<path d="M10 12h2v1h-2v-1z" fill="rgb(26,28,44)"/>
<path d="M7 13h1v1h-1v-1z" fill="rgb(26,28,44)"/>
</svg>
