<?xml version="1.0" encoding="utf-8"?>
<!-- generated at drububu.com  -->
<!DOCTYPE svg PUBLIC "-//W3C//DTD SVG 1.1//EN" "http://www.w3.org/Graphics/SVG/1.1/DTD/svg11.dtd">
<svg version="1.1" preserveAspectRatio="xMinYMin meet" xmlns="http://www.w3.org/2000/svg" xmlns:xlink="http://www.w3.org/1999/xlink" x="0px" y="0px" viewBox="0 0 15 15">
<path d="M6 1h2v1h-1v5h1v1h-1v3h-1v-10z" fill="rgb(26,28,44)"/>
<path d="M7 2h1v1h2v1h1v1h-1v1h-2v1h-1v-5z" fill="rgb(177,65,86)"/>
<path d="M8 2h2v1h-2v-1z" fill="rgb(26,28,44)"/>
<path d="M10 3h1v1h-1v-1z" fill="rgb(26,28,44)"/>
<path d="M11 4h1v1h-1v-1z" fill="rgb(26,28,44)"/>
<path d="M10 5h1v1h-1v-1z" fill="rgb(26,28,44)"/>
<path d="M8 6h2v1h-2v-1z" fill="rgb(26,28,44)"/>
<path d="M5 11h1v1h-1v-1z" fill="rgb(26,28,44)"/>
<path d="M6 11h1v1h1v1h-3v-1h1v-1z" fill="rgb(85,113,133)"/>
<path d="M7 11h1v1h-1v-1z" fill="rgb(26,28,44)"/>
<path d="M4 12h1v1h3v-1h1v2h-5v-2z" fill="rgb(26,28,44)"/>
</svg>
